#!OML:ASF F:\VICON\USERDATA\INSTALL\Justin_Nancy\Justin_Nancy.ASF
:FULLY-SPECIFIED
:DEGREES
309
root 0.733124 17.1725 -5.18576 3.18345 -4.83597 -3.90254
lowerback 6.19955 2.76501 4.19214
upperback -0.232289 4.05614 1.80072
thorax -3.55498 1.95249 -0.85067
lowerneck -17.733 -4.88701 -9.44248
upperneck 19.2501 -5.65143 6.57417
head 9.46756 -2.6133 3.07434
rclavicle 4.53478e-014 -2.38542e-015
rhumerus -24.2062 -7.05931 -80.667
rradius 35.3911
rwrist 4.67203
rhand -16.1331 12.873
rfingers 7.12502
rthumb 10.0717 -16.866
lclavicle 4.53478e-014 -2.38542e-015
lhumerus -39.2969 18.3731 75.7984
lradius 18.707
lwrist -18.0032
lhand -11.9897 26.0902
lfingers 7.12502
lthumb 14.067 55.5941
rfemur 15.1046 5.47306 29.4884
rtibia 14.1941
rfoot -13.0975 -5.05073
rtoes -14.076
lfemur -33.4899 -2.14565 -15.3512
ltibia 23.9654
lfoot -2.27015 3.9355
ltoes -9.11088
310
root 0.749031 17.1827 -4.97863 2.91801 -4.78322 -3.52368
lowerback 6.28129 2.75284 3.85419
upperback -0.182268 4.01489 1.71987
thorax -3.56746 1.9379 -0.746372
lowerneck -17.8782 -4.91519 -9.46374
upperneck 19.5619 -5.68006 6.55085
head 9.60595 -2.62925 3.06688
rclavicle -2.88238e-014 -2.62396e-014
rhumerus -24.3396 -7.53173 -80.5167
rradius 35.6707
rwrist 4.79398
rhand -15.8336 11.6247
rfingers 7.12502
rthumb 10.3606 -18.1001
lclavicle -2.88238e-014 -2.62396e-014
lhumerus -39.4889 18.5779 75.7511
lradius 18.6975
lwrist -17.9854
lhand -11.3468 27.3259
lfingers 7.12502
lthumb 14.6864 56.7857
rfemur 15.3772 5.56051 29.037
rtibia 15.4107
rfoot -12.4278 -4.88132
rtoes -15.2544
lfemur -33.2574 -2.42189 -15.9288
ltibia 25.089
lfoot -0.529681 3.98888
ltoes -8.92622
311
root 0.761887 17.191 -4.77125 2.72138 -4.75975 -3.20963
lowerback 6.30699 2.76511 3.51403
upperback -0.201055 4.00723 1.68459
thorax -3.62196 1.93905 -0.595717
lowerneck -17.7974 -4.9352 -9.54036
upperneck 19.7729 -5.70089 6.53665
head 9.66936 -2.64879 3.07471
rclavicle 2.81777e-014 -1.19271e-015
rhumerus -24.6866 -8.04815 -80.2995
rradius 36.0768
rwrist 5.07779
rhand -16.1039 12.2095
rfingers 7.12502
rthumb 10.0999 -17.5281
lclavicle 2.81777e-014 -1.19271e-015
lhumerus -39.8987 19.086 75.4463
lradius 18.5652
lwrist -18.6015
lhand -10.4631 28.3294
lfingers 7.12502
lthumb 15.5377 57.7252
rfemur 15.2594 5.83439 28.7194
rtibia 17.1649
rfoot -11.7304 -4.72766
rtoes -15.3143
lfemur -32.9967 -2.55444 -16.447
ltibia 26.113
lfoot 0.185425 3.93388
ltoes -9.07925
312
root 0.776661 17.202 -4.56361 2.51338 -4.68215 -2.91641
lowerback 6.40006 2.77014 3.24519
upperback -0.242819 3.99724 1.60791
thorax -3.73038 1.93631 -0.531286
lowerneck -17.4854 -4.95273 -9.47653
upperneck 19.6985 -5.76989 6.53406
head 9.5898 -2.682 3.05661
rclavicle 2.53202e-014 -5.56597e-015
rhumerus -24.9549 -8.50102 -80.1459
rradius 36.2965
rwrist 5.11967
rhand -16.1869 12.6508
rfingers 7.12502
rthumb 10.0199 -17.0906
lclavicle 2.53202e-014 -5.56597e-015
lhumerus -40.0584 19.9514 74.8084
lradius 17.9391
lwrist -19.6927
lhand -10.6113 27.7437
lfingers 7.12502
lthumb 15.3949 57.1505
rfemur 14.8599 6.00564 28.4105
rtibia 19.4318
rfoot -10.9326 -4.50344
rtoes -15.0972
lfemur -32.6474 -2.52194 -17.0138
ltibia 26.9801
lfoot 0.0996057 3.47281
ltoes -7.03146
313
root 0.798008 17.215 -4.34561 2.08676 -4.67109 -2.40015
lowerback 6.62117 2.81892 2.84619
upperback -0.240068 4.03495 1.44479
thorax -3.86573 1.95905 -0.493681
lowerneck -17.0995 -4.9323 -9.37561
upperneck 19.6421 -5.81084 6.56315
head 9.5002 -2.69754 3.04907
rclavicle 3.37934e-014 1.86858e-014
rhumerus -25.3953 -8.99625 -79.9444
rradius 36.4521
rwrist 4.74962
rhand -16.0859 12.9003
rfingers 7.12502
rthumb 10.1173 -16.8365
lclavicle 3.37934e-014 1.86858e-014
lhumerus -40.1659 20.7929 74.1018
lradius 17.2041
lwrist -20.8863
lhand -11.0908 26.8135
lfingers 7.12502
lthumb 14.933 56.2552
rfemur 14.5135 6.00737 27.7452
rtibia 22.0226
rfoot -10.0364 -4.0052
rtoes -14.7204
lfemur -31.9622 -2.64169 -17.757
ltibia 27.7562
lfoot -0.0906633 2.98112
ltoes -4.63923
314
root 0.8176 17.2352 -4.1281 1.74209 -4.47405 -1.82517
lowerback 6.74422 2.82654 2.37326
upperback -0.157276 4.00331 1.27169
thorax -3.86903 1.95158 -0.410772
lowerneck -17.153 -5.00016 -9.43504
upperneck 19.7541 -5.93944 6.77263
head 9.56933 -2.73809 3.11485
rclavicle 1.55549e-014 -5.1684e-015
rhumerus -25.6307 -9.67685 -79.7456
rradius 36.5385
rwrist 4.36697
rhand -16.1361 13.0172
rfingers 7.12502
rthumb 10.0688 -16.7219
lclavicle 1.55549e-014 -5.1684e-015
lhumerus -40.1302 21.3262 73.7463
lradius 16.826
lwrist -21.7825
lhand -11.2767 26.8558
lfingers 7.12502
lthumb 14.754 56.3107
rfemur 13.8917 5.66449 26.9368
rtibia 24.86
rfoot -8.69593 -3.23692
rtoes -15.3326
lfemur -31.3132 -2.87004 -18.5752
ltibia 28.3972
lfoot 0.19108 2.34224
ltoes -3.00484
315
root 0.834819 17.2468 -3.92436 1.60348 -4.34196 -1.63314
lowerback 6.83053 2.86115 2.3194
upperback -0.131251 4.04261 1.15599
thorax -3.88481 1.97088 -0.50772
lowerneck -17.265 -5.09419 -9.48533
upperneck 19.818 -6.08607 6.92577
head 9.63255 -2.79093 3.15531
rclavicle -3.53091e-014 1.63003e-014
rhumerus -25.8408 -10.6335 -79.5687
rradius 36.6074
rwrist 4.46929
rhand -16.304 13.2401
rfingers 7.12502
rthumb 9.90685 -16.5068
lclavicle -3.53091e-014 1.63003e-014
lhumerus -39.9611 20.8719 74.0309
lradius 16.8855
lwrist -21.4637
lhand -11.2194 26.7141
lfingers 7.12502
lthumb 14.8092 56.1649
rfemur 12.9878 5.26524 26.4878
rtibia 27.7527
rfoot -6.69577 -2.34793
rtoes -15.2795
lfemur -30.8756 -2.92475 -18.9678
ltibia 28.9609
lfoot 0.880627 2.17316
ltoes -1.8151
316
root 0.852742 17.262 -3.71527 1.4968 -4.43297 -1.48316
lowerback 6.80333 2.91941 2.28946
upperback -0.180191 4.11471 1.06641
thorax -3.91412 2.00576 -0.590291
lowerneck -17.0334 -5.10844 -9.4879
upperneck 19.825 -6.14291 6.98829
head 9.59968 -2.81552 3.173
rclavicle 4.23411e-014 1.90833e-014
rhumerus -26.4071 -11.1721 -79.4305
rradius 36.8456
rwrist 4.16349
rhand -16.825 13.5494
rfingers 7.12502
rthumb 9.40424 -16.2208
lclavicle 4.23411e-014 1.90833e-014
lhumerus -40.0518 20.6486 74.0727
lradius 16.9811
lwrist -21.3621
lhand -11.4132 26.1588
lfingers 7.12502
lthumb 14.6224 55.6233
rfemur 11.9111 5.07288 26.0326
rtibia 30.6813
rfoot -4.21548 -1.50746
rtoes -14.6827
lfemur -30.4418 -2.80859 -19.3295
ltibia 29.5718
lfoot 1.26234 2.25936
ltoes -1.02026
317
root 0.874595 17.2767 -3.49217 1.31955 -4.60525 -1.43456
lowerback 6.54889 2.99078 2.35479
upperback -0.0959063 4.20413 1.06145
thorax -3.67669 2.05303 -0.622125
lowerneck -16.8161 -5.07423 -9.54027
upperneck 19.8242 -6.12151 7.07253
head 9.56186 -2.80494 3.21758
rclavicle -1.71949e-014 -1.66979e-014
rhumerus -26.8639 -11.5126 -79.2665
rradius 37.2608
rwrist 3.65775
rhand -16.7964 13.2319
rfingers 7.12502
rthumb 9.43177 -16.5371
lclavicle -1.71949e-014 -1.66979e-014
lhumerus -40.0669 20.8583 73.9931
lradius 16.9824
lwrist -21.5827
lhand -10.5149 26.6951
lfingers 7.12502
lthumb 15.4878 56.0947
rfemur 10.7614 4.86041 25.6016
rtibia 33.626
rfoot -1.03326 -0.622048
rtoes -13.2341
lfemur -29.8102 -2.62135 -19.6341
ltibia 30.2245
lfoot 1.02973 2.32976
ltoes 0.0303472
318
root 0.896029 17.2938 -3.2793 1.07132 -4.77042 -1.44755
lowerback 6.60864 3.06705 2.49582
upperback 0.0163412 4.31576 1.07732
thorax -3.58199 2.10799 -0.693687
lowerneck -16.9557 -5.09576 -9.6133
upperneck 19.9485 -6.14916 7.17402
head 9.63979 -2.80949 3.26111
rclavicle 2.3879e-014 -3.97569e-015
rhumerus -27.0814 -12.03 -79.1093
rradius 37.417
rwrist 3.44408
rhand -17.2444 13.2149
rfingers 7.12502
rthumb 8.99952 -16.5732
lclavicle 2.3879e-014 -3.97569e-015
lhumerus -39.9837 20.9942 74.0551
lradius 17.1309
lwrist -21.8093
lhand -9.81509 27.8269
lfingers 7.12502
lthumb 16.1617 57.1731
rfemur 9.52251 4.71384 25.2455
rtibia 36.5994
rfoot 2.83025 0.101077
rtoes -10.9536
lfemur -29.0444 -2.47118 -19.8905
ltibia 30.8031
lfoot 0.592991 2.4541
ltoes 1.41406
319
root 0.920513 17.3132 -3.07034 0.922223 -4.94182 -1.27571
lowerback 6.66966 3.10086 2.46059
upperback 0.0862242 4.35733 1.05649
thorax -3.54358 2.13001 -0.70056
lowerneck -17.0543 -5.12683 -9.7449
upperneck 19.8808 -6.15011 7.20237
head 9.64003 -2.81464 3.29054
rclavicle 3.87133e-014 -1.19271e-014
rhumerus -27.2781 -12.3326 -78.95
rradius 37.4853
rwrist 3.22689
rhand -17.551 13.7138
rfingers 7.12502
rthumb 8.70368 -16.0868
lclavicle 3.87133e-014 -1.19271e-014
lhumerus -39.8092 20.7553 74.4296
lradius 17.352
lwrist -21.3876
lhand -9.91466 28.317
lfingers 7.12502
lthumb 16.0658 57.671
rfemur 8.05501 4.65518 24.6718
rtibia 39.5945
rfoot 6.55363 0.818776
rtoes -9.22137
lfemur -28.3237 -2.37579 -20.3456
ltibia 31.2173
lfoot -0.0284589 2.62551
ltoes 2.36
